<mxfile host="app.diagrams.net" modified="2023-05-27T16:50:16.955Z" agent="Mozilla/5.0 (Macintosh; Intel Mac OS X 10_15_7) AppleWebKit/605.1.15 (KHTML, like Gecko) Version/16.4 Safari/605.1.15" etag="lGE_kL6zReLtbZeqMLRx" version="21.3.4" type="github">
  <diagram name="페이지-1" id="TRpvbbDH61rDngEs5T_k">
    <mxGraphModel dx="954" dy="647" grid="1" gridSize="10" guides="1" tooltips="1" connect="1" arrows="1" fold="1" page="1" pageScale="1" pageWidth="827" pageHeight="1169" math="0" shadow="0">
      <root>
        <mxCell id="0" />
        <mxCell id="1" parent="0" />
        <mxCell id="m7VniRieLDafaRHdgjhX-3" style="edgeStyle=orthogonalEdgeStyle;rounded=0;orthogonalLoop=1;jettySize=auto;html=1;exitX=0.5;exitY=1;exitDx=0;exitDy=0;" edge="1" parent="1" source="m7VniRieLDafaRHdgjhX-1">
          <mxGeometry relative="1" as="geometry">
            <mxPoint x="414" y="180" as="targetPoint" />
          </mxGeometry>
        </mxCell>
        <mxCell id="m7VniRieLDafaRHdgjhX-1" value="&lt;div style=&quot;font-style: normal; font-variant-caps: normal; font-weight: normal; letter-spacing: normal; text-align: start; text-indent: 0px; text-transform: none; word-spacing: 0px; -webkit-text-stroke-width: 0px; text-decoration: none; color: rgb(212, 212, 212); background-color: rgb(30, 30, 30); font-family: Menlo, Monaco, &amp;quot;Courier New&amp;quot;, monospace; font-size: 12px; line-height: 18px;&quot;&gt;&lt;div&gt;&lt;span style=&quot;color: rgb(86, 156, 214);&quot;&gt;def&lt;/span&gt;&lt;span style=&quot;color: rgb(212, 212, 212);&quot;&gt; &lt;/span&gt;&lt;span style=&quot;color: rgb(220, 220, 170);&quot;&gt;insertionSortRec&lt;/span&gt;&lt;span style=&quot;color: rgb(212, 212, 212);&quot;&gt;(&lt;/span&gt;&lt;span style=&quot;color: rgb(156, 220, 254);&quot;&gt;A&lt;/span&gt;&lt;span style=&quot;color: rgb(212, 212, 212);&quot;&gt;, &lt;/span&gt;&lt;span style=&quot;color: rgb(156, 220, 254);&quot;&gt;start&lt;/span&gt;&lt;span style=&quot;color: rgb(212, 212, 212);&quot;&gt;, &lt;/span&gt;&lt;span style=&quot;color: rgb(156, 220, 254);&quot;&gt;end&lt;/span&gt;&lt;span style=&quot;color: rgb(212, 212, 212);&quot;&gt;):&lt;/span&gt;&lt;/div&gt;&lt;/div&gt;" style="rounded=1;whiteSpace=wrap;html=1;" vertex="1" parent="1">
          <mxGeometry x="269" y="100" width="290" height="50" as="geometry" />
        </mxCell>
        <mxCell id="m7VniRieLDafaRHdgjhX-2" value="insertionSortRec (A: list, start: int, end: int)" style="text;html=1;strokeColor=none;fillColor=none;align=center;verticalAlign=middle;whiteSpace=wrap;rounded=0;" vertex="1" parent="1">
          <mxGeometry x="274" y="40" width="280" height="30" as="geometry" />
        </mxCell>
        <mxCell id="m7VniRieLDafaRHdgjhX-7" style="edgeStyle=orthogonalEdgeStyle;rounded=0;orthogonalLoop=1;jettySize=auto;html=1;exitX=0.5;exitY=1;exitDx=0;exitDy=0;entryX=0.5;entryY=0;entryDx=0;entryDy=0;" edge="1" parent="1" source="m7VniRieLDafaRHdgjhX-4" target="m7VniRieLDafaRHdgjhX-5">
          <mxGeometry relative="1" as="geometry" />
        </mxCell>
        <mxCell id="m7VniRieLDafaRHdgjhX-4" value="&lt;div style=&quot;font-style: normal; font-variant-caps: normal; font-weight: normal; letter-spacing: normal; text-align: start; text-indent: 0px; text-transform: none; word-spacing: 0px; -webkit-text-stroke-width: 0px; text-decoration: none; color: rgb(212, 212, 212); background-color: rgb(30, 30, 30); font-family: Menlo, Monaco, &amp;quot;Courier New&amp;quot;, monospace; font-size: 12px; line-height: 18px;&quot;&gt;&lt;div&gt;&lt;span style=&quot;color: rgb(156, 220, 254);&quot;&gt;value&lt;/span&gt;&lt;span style=&quot;color: rgb(212, 212, 212);&quot;&gt; = &lt;/span&gt;&lt;span style=&quot;color: rgb(156, 220, 254);&quot;&gt;A&lt;/span&gt;&lt;span style=&quot;color: rgb(212, 212, 212);&quot;&gt;[&lt;/span&gt;&lt;span style=&quot;color: rgb(156, 220, 254);&quot;&gt;start&lt;/span&gt;&lt;span style=&quot;color: rgb(212, 212, 212);&quot;&gt;]&lt;/span&gt;&lt;/div&gt;&lt;div&gt;&lt;div style=&quot;line-height: 18px;&quot;&gt;loc = &lt;span style=&quot;color: rgb(156, 220, 254);&quot;&gt;start&lt;/span&gt;&lt;/div&gt;&lt;/div&gt;&lt;/div&gt;" style="shape=hexagon;perimeter=hexagonPerimeter2;whiteSpace=wrap;html=1;fixedSize=1;" vertex="1" parent="1">
          <mxGeometry x="324.5" y="180" width="179" height="70" as="geometry" />
        </mxCell>
        <mxCell id="m7VniRieLDafaRHdgjhX-5" value="&lt;div style=&quot;font-style: normal; font-variant-caps: normal; font-weight: normal; letter-spacing: normal; text-align: start; text-indent: 0px; text-transform: none; word-spacing: 0px; -webkit-text-stroke-width: 0px; text-decoration: none; color: rgb(212, 212, 212); background-color: rgb(30, 30, 30); font-family: Menlo, Monaco, &amp;quot;Courier New&amp;quot;, monospace; font-size: 12px; line-height: 18px;&quot;&gt;&lt;div&gt;&lt;span style=&quot;color: rgb(156, 220, 254);&quot;&gt;loc&lt;/span&gt;&lt;span style=&quot;color: rgb(212, 212, 212);&quot;&gt; &amp;gt; &lt;/span&gt;&lt;span style=&quot;color: rgb(181, 206, 168);&quot;&gt;0&lt;/span&gt;&lt;span style=&quot;color: rgb(212, 212, 212);&quot;&gt; &lt;/span&gt;&lt;span style=&quot;color: rgb(86, 156, 214);&quot;&gt;and&lt;/span&gt;&lt;span style=&quot;color: rgb(212, 212, 212);&quot;&gt; &lt;/span&gt;&lt;span style=&quot;color: rgb(156, 220, 254);&quot;&gt;A&lt;/span&gt;&lt;span style=&quot;color: rgb(212, 212, 212);&quot;&gt;[&lt;/span&gt;&lt;span style=&quot;color: rgb(156, 220, 254);&quot;&gt;loc&lt;/span&gt;&lt;span style=&quot;color: rgb(212, 212, 212);&quot;&gt;-&lt;/span&gt;&lt;span style=&quot;color: rgb(181, 206, 168);&quot;&gt;1&lt;/span&gt;&lt;span style=&quot;color: rgb(212, 212, 212);&quot;&gt;] &amp;gt; &lt;/span&gt;&lt;span style=&quot;color: rgb(156, 220, 254);&quot;&gt;value&lt;/span&gt;&lt;span style=&quot;color: rgb(212, 212, 212);&quot;&gt;:&lt;/span&gt;&lt;/div&gt;&lt;/div&gt;" style="swimlane;whiteSpace=wrap;html=1;" vertex="1" parent="1">
          <mxGeometry x="289" y="280" width="250" height="200" as="geometry" />
        </mxCell>
        <mxCell id="m7VniRieLDafaRHdgjhX-10" style="edgeStyle=orthogonalEdgeStyle;rounded=0;orthogonalLoop=1;jettySize=auto;html=1;exitX=0.5;exitY=1;exitDx=0;exitDy=0;" edge="1" parent="m7VniRieLDafaRHdgjhX-5" source="m7VniRieLDafaRHdgjhX-8">
          <mxGeometry relative="1" as="geometry">
            <mxPoint x="125" y="250" as="targetPoint" />
          </mxGeometry>
        </mxCell>
        <mxCell id="m7VniRieLDafaRHdgjhX-8" value="&lt;div style=&quot;font-style: normal; font-variant-caps: normal; font-weight: normal; letter-spacing: normal; text-align: start; text-indent: 0px; text-transform: none; word-spacing: 0px; -webkit-text-stroke-width: 0px; text-decoration: none; color: rgb(212, 212, 212); background-color: rgb(30, 30, 30); font-family: Menlo, Monaco, &amp;quot;Courier New&amp;quot;, monospace; font-size: 12px; line-height: 18px;&quot;&gt;&lt;div&gt;&lt;span style=&quot;color: rgb(156, 220, 254);&quot;&gt;A&lt;/span&gt;&lt;span style=&quot;color: rgb(212, 212, 212);&quot;&gt;[&lt;/span&gt;&lt;span style=&quot;color: rgb(156, 220, 254);&quot;&gt;loc&lt;/span&gt;&lt;span style=&quot;color: rgb(212, 212, 212);&quot;&gt;] = &lt;/span&gt;&lt;span style=&quot;color: rgb(156, 220, 254);&quot;&gt;A&lt;/span&gt;&lt;span style=&quot;color: rgb(212, 212, 212);&quot;&gt;[&lt;/span&gt;&lt;span style=&quot;color: rgb(156, 220, 254);&quot;&gt;loc&lt;/span&gt;&lt;span style=&quot;color: rgb(212, 212, 212);&quot;&gt; - &lt;/span&gt;&lt;span style=&quot;color: rgb(181, 206, 168);&quot;&gt;1&lt;/span&gt;&lt;span style=&quot;color: rgb(212, 212, 212);&quot;&gt;]&lt;/span&gt;&lt;/div&gt;&lt;div&gt;&lt;div style=&quot;line-height: 18px;&quot;&gt;loc -= &lt;span style=&quot;color: rgb(181, 206, 168);&quot;&gt;1&lt;/span&gt;&lt;/div&gt;&lt;/div&gt;&lt;/div&gt;" style="rounded=0;whiteSpace=wrap;html=1;" vertex="1" parent="m7VniRieLDafaRHdgjhX-5">
          <mxGeometry x="47.5" y="70" width="155" height="60" as="geometry" />
        </mxCell>
        <mxCell id="m7VniRieLDafaRHdgjhX-9" value="" style="endArrow=classic;html=1;rounded=0;exitX=0.5;exitY=0;exitDx=0;exitDy=0;entryX=0.5;entryY=0;entryDx=0;entryDy=0;" edge="1" parent="m7VniRieLDafaRHdgjhX-5" source="m7VniRieLDafaRHdgjhX-5" target="m7VniRieLDafaRHdgjhX-8">
          <mxGeometry width="50" height="50" relative="1" as="geometry">
            <mxPoint x="91" y="210" as="sourcePoint" />
            <mxPoint x="141" y="160" as="targetPoint" />
          </mxGeometry>
        </mxCell>
        <mxCell id="m7VniRieLDafaRHdgjhX-13" style="edgeStyle=orthogonalEdgeStyle;rounded=0;orthogonalLoop=1;jettySize=auto;html=1;exitX=0.5;exitY=1;exitDx=0;exitDy=0;" edge="1" parent="1" source="m7VniRieLDafaRHdgjhX-12">
          <mxGeometry relative="1" as="geometry">
            <mxPoint x="415" y="630" as="targetPoint" />
          </mxGeometry>
        </mxCell>
        <mxCell id="m7VniRieLDafaRHdgjhX-12" value="&lt;div style=&quot;font-style: normal; font-variant-caps: normal; font-weight: normal; letter-spacing: normal; text-align: start; text-indent: 0px; text-transform: none; word-spacing: 0px; -webkit-text-stroke-width: 0px; text-decoration: none; color: rgb(212, 212, 212); background-color: rgb(30, 30, 30); font-family: Menlo, Monaco, &amp;quot;Courier New&amp;quot;, monospace; font-size: 12px; line-height: 18px;&quot;&gt;&lt;div&gt;&lt;span style=&quot;color: rgb(156, 220, 254);&quot;&gt;A&lt;/span&gt;&lt;span style=&quot;color: rgb(212, 212, 212);&quot;&gt;[&lt;/span&gt;&lt;span style=&quot;color: rgb(156, 220, 254);&quot;&gt;loc&lt;/span&gt;&lt;span style=&quot;color: rgb(212, 212, 212);&quot;&gt;] = &lt;/span&gt;&lt;span style=&quot;color: rgb(156, 220, 254);&quot;&gt;value&lt;/span&gt;&lt;/div&gt;&lt;/div&gt;" style="shape=parallelogram;perimeter=parallelogramPerimeter;whiteSpace=wrap;html=1;fixedSize=1;" vertex="1" parent="1">
          <mxGeometry x="330" y="540" width="170" height="60" as="geometry" />
        </mxCell>
        <mxCell id="m7VniRieLDafaRHdgjhX-15" style="edgeStyle=orthogonalEdgeStyle;rounded=0;orthogonalLoop=1;jettySize=auto;html=1;exitX=0.5;exitY=1;exitDx=0;exitDy=0;" edge="1" parent="1" source="m7VniRieLDafaRHdgjhX-14">
          <mxGeometry relative="1" as="geometry">
            <mxPoint x="415" y="745" as="targetPoint" />
          </mxGeometry>
        </mxCell>
        <mxCell id="m7VniRieLDafaRHdgjhX-19" style="edgeStyle=orthogonalEdgeStyle;rounded=0;orthogonalLoop=1;jettySize=auto;html=1;exitX=1;exitY=0.5;exitDx=0;exitDy=0;entryX=0;entryY=0.5;entryDx=0;entryDy=0;" edge="1" parent="1" source="m7VniRieLDafaRHdgjhX-14" target="m7VniRieLDafaRHdgjhX-17">
          <mxGeometry relative="1" as="geometry" />
        </mxCell>
        <mxCell id="m7VniRieLDafaRHdgjhX-14" value="&lt;div style=&quot;font-style: normal; font-variant-caps: normal; font-weight: normal; letter-spacing: normal; text-align: start; text-indent: 0px; text-transform: none; word-spacing: 0px; -webkit-text-stroke-width: 0px; text-decoration: none; color: rgb(212, 212, 212); background-color: rgb(30, 30, 30); font-family: Menlo, Monaco, &amp;quot;Courier New&amp;quot;, monospace; font-size: 12px; line-height: 18px;&quot;&gt;&lt;div&gt;&lt;span style=&quot;color: rgb(156, 220, 254);&quot;&gt;start&lt;/span&gt;&lt;span style=&quot;color: rgb(212, 212, 212);&quot;&gt; + &lt;/span&gt;&lt;span style=&quot;color: rgb(181, 206, 168);&quot;&gt;1&lt;/span&gt;&lt;span style=&quot;color: rgb(212, 212, 212);&quot;&gt; &amp;lt; &lt;/span&gt;&lt;span style=&quot;color: rgb(156, 220, 254);&quot;&gt;end&lt;/span&gt;&lt;span style=&quot;color: rgb(212, 212, 212);&quot;&gt;:&lt;/span&gt;&lt;/div&gt;&lt;/div&gt;" style="rhombus;whiteSpace=wrap;html=1;" vertex="1" parent="1">
          <mxGeometry x="330" y="640" width="170" height="80" as="geometry" />
        </mxCell>
        <mxCell id="m7VniRieLDafaRHdgjhX-17" value="&lt;div style=&quot;font-style: normal; font-variant-caps: normal; font-weight: normal; letter-spacing: normal; text-align: start; text-indent: 0px; text-transform: none; word-spacing: 0px; -webkit-text-stroke-width: 0px; text-decoration: none; color: rgb(212, 212, 212); background-color: rgb(30, 30, 30); font-family: Menlo, Monaco, &amp;quot;Courier New&amp;quot;, monospace; font-size: 12px; line-height: 18px;&quot;&gt;&lt;div&gt;&lt;span style=&quot;color: rgb(220, 220, 170);&quot;&gt;insertionSortRec&lt;/span&gt;&lt;span style=&quot;color: rgb(212, 212, 212);&quot;&gt;(&lt;/span&gt;&lt;span style=&quot;color: rgb(156, 220, 254);&quot;&gt;A&lt;/span&gt;&lt;span style=&quot;color: rgb(212, 212, 212);&quot;&gt;, &lt;/span&gt;&lt;span style=&quot;color: rgb(156, 220, 254);&quot;&gt;start&lt;/span&gt;&lt;span style=&quot;color: rgb(212, 212, 212);&quot;&gt;+&lt;/span&gt;&lt;span style=&quot;color: rgb(181, 206, 168);&quot;&gt;1&lt;/span&gt;&lt;span style=&quot;color: rgb(212, 212, 212);&quot;&gt;, &lt;/span&gt;&lt;span style=&quot;color: rgb(156, 220, 254);&quot;&gt;end&lt;/span&gt;&lt;span style=&quot;color: rgb(212, 212, 212);&quot;&gt;)&lt;/span&gt;&lt;/div&gt;&lt;/div&gt;" style="rounded=0;whiteSpace=wrap;html=1;" vertex="1" parent="1">
          <mxGeometry x="539" y="650" width="250" height="60" as="geometry" />
        </mxCell>
        <mxCell id="m7VniRieLDafaRHdgjhX-18" value="Y" style="text;html=1;strokeColor=none;fillColor=none;align=center;verticalAlign=middle;whiteSpace=wrap;rounded=0;" vertex="1" parent="1">
          <mxGeometry x="479" y="650" width="60" height="30" as="geometry" />
        </mxCell>
        <mxCell id="m7VniRieLDafaRHdgjhX-21" value="else" style="text;html=1;strokeColor=none;fillColor=none;align=center;verticalAlign=middle;whiteSpace=wrap;rounded=0;" vertex="1" parent="1">
          <mxGeometry x="419" y="710" width="60" height="30" as="geometry" />
        </mxCell>
        <mxCell id="m7VniRieLDafaRHdgjhX-22" value="&lt;div style=&quot;font-style: normal; font-variant-caps: normal; font-weight: normal; letter-spacing: normal; text-align: start; text-indent: 0px; text-transform: none; word-spacing: 0px; -webkit-text-stroke-width: 0px; text-decoration: none; color: rgb(212, 212, 212); background-color: rgb(30, 30, 30); font-family: Menlo, Monaco, &amp;quot;Courier New&amp;quot;, monospace; font-size: 12px; line-height: 18px;&quot;&gt;&lt;div style=&quot;line-height: 18px;&quot;&gt;i &lt;span style=&quot;color: rgb(197, 134, 192);&quot;&gt;in&lt;/span&gt; &lt;span style=&quot;color: rgb(78, 201, 176);&quot;&gt;range&lt;/span&gt;(&lt;span style=&quot;color: rgb(181, 206, 168);&quot;&gt;0&lt;/span&gt;, &lt;span style=&quot;color: rgb(156, 220, 254);&quot;&gt;listLength&lt;/span&gt;-&lt;span style=&quot;color: rgb(181, 206, 168);&quot;&gt;1&lt;/span&gt;):&lt;/div&gt;&lt;/div&gt;" style="swimlane;whiteSpace=wrap;html=1;" vertex="1" parent="1">
          <mxGeometry x="250" y="750" width="330" height="340" as="geometry" />
        </mxCell>
        <mxCell id="m7VniRieLDafaRHdgjhX-23" value="&lt;div style=&quot;font-style: normal; font-variant-caps: normal; font-weight: normal; letter-spacing: normal; text-align: start; text-indent: 0px; text-transform: none; word-spacing: 0px; -webkit-text-stroke-width: 0px; text-decoration: none; color: rgb(212, 212, 212); background-color: rgb(30, 30, 30); font-family: Menlo, Monaco, &amp;quot;Courier New&amp;quot;, monospace; font-size: 12px; line-height: 18px;&quot;&gt;&lt;div&gt;&lt;span style=&quot;color: rgb(156, 220, 254);&quot;&gt;A&lt;/span&gt;&lt;span style=&quot;color: rgb(212, 212, 212);&quot;&gt;[&lt;/span&gt;&lt;span style=&quot;color: rgb(156, 220, 254);&quot;&gt;i&lt;/span&gt;&lt;span style=&quot;color: rgb(212, 212, 212);&quot;&gt;] &amp;gt; &lt;/span&gt;&lt;span style=&quot;color: rgb(156, 220, 254);&quot;&gt;A&lt;/span&gt;&lt;span style=&quot;color: rgb(212, 212, 212);&quot;&gt;[&lt;/span&gt;&lt;span style=&quot;color: rgb(156, 220, 254);&quot;&gt;listLength&lt;/span&gt;&lt;span style=&quot;color: rgb(212, 212, 212);&quot;&gt;-&lt;/span&gt;&lt;span style=&quot;color: rgb(181, 206, 168);&quot;&gt;1&lt;/span&gt;&lt;span style=&quot;color: rgb(212, 212, 212);&quot;&gt;]:&lt;/span&gt;&lt;/div&gt;&lt;/div&gt;" style="rhombus;whiteSpace=wrap;html=1;" vertex="1" parent="m7VniRieLDafaRHdgjhX-22">
          <mxGeometry x="68.25" y="40" width="190" height="80" as="geometry" />
        </mxCell>
        <mxCell id="m7VniRieLDafaRHdgjhX-27" style="edgeStyle=orthogonalEdgeStyle;rounded=0;orthogonalLoop=1;jettySize=auto;html=1;exitX=0.5;exitY=1;exitDx=0;exitDy=0;" edge="1" parent="m7VniRieLDafaRHdgjhX-22" source="m7VniRieLDafaRHdgjhX-25">
          <mxGeometry relative="1" as="geometry">
            <mxPoint x="163.25" y="240" as="targetPoint" />
          </mxGeometry>
        </mxCell>
        <mxCell id="m7VniRieLDafaRHdgjhX-25" value="&lt;div style=&quot;font-style: normal; font-variant-caps: normal; font-weight: normal; letter-spacing: normal; text-align: start; text-indent: 0px; text-transform: none; word-spacing: 0px; -webkit-text-stroke-width: 0px; text-decoration: none; color: rgb(212, 212, 212); background-color: rgb(30, 30, 30); font-family: Menlo, Monaco, &amp;quot;Courier New&amp;quot;, monospace; font-size: 12px; line-height: 18px;&quot;&gt;&lt;div&gt;&lt;span style=&quot;color: rgb(156, 220, 254);&quot;&gt;A&lt;/span&gt;&lt;span style=&quot;color: rgb(212, 212, 212);&quot;&gt;.insert(&lt;/span&gt;&lt;span style=&quot;color: rgb(156, 220, 254);&quot;&gt;i&lt;/span&gt;&lt;span style=&quot;color: rgb(212, 212, 212);&quot;&gt;-&lt;/span&gt;&lt;span style=&quot;color: rgb(181, 206, 168);&quot;&gt;1&lt;/span&gt;&lt;span style=&quot;color: rgb(212, 212, 212);&quot;&gt;, &lt;/span&gt;&lt;span style=&quot;color: rgb(156, 220, 254);&quot;&gt;A&lt;/span&gt;&lt;span style=&quot;color: rgb(212, 212, 212);&quot;&gt;.pop())&lt;/span&gt;&lt;/div&gt;&lt;/div&gt;" style="rounded=0;whiteSpace=wrap;html=1;" vertex="1" parent="m7VniRieLDafaRHdgjhX-22">
          <mxGeometry x="68" y="170" width="190" height="40" as="geometry" />
        </mxCell>
        <mxCell id="m7VniRieLDafaRHdgjhX-24" style="edgeStyle=orthogonalEdgeStyle;rounded=0;orthogonalLoop=1;jettySize=auto;html=1;exitX=0.5;exitY=1;exitDx=0;exitDy=0;" edge="1" parent="m7VniRieLDafaRHdgjhX-22" source="m7VniRieLDafaRHdgjhX-23" target="m7VniRieLDafaRHdgjhX-25">
          <mxGeometry relative="1" as="geometry">
            <mxPoint x="163.25" y="150" as="targetPoint" />
          </mxGeometry>
        </mxCell>
        <mxCell id="m7VniRieLDafaRHdgjhX-29" value="&lt;div style=&quot;font-style: normal; font-variant-caps: normal; font-weight: normal; letter-spacing: normal; text-align: start; text-indent: 0px; text-transform: none; word-spacing: 0px; -webkit-text-stroke-width: 0px; text-decoration: none; color: rgb(212, 212, 212); background-color: rgb(30, 30, 30); font-family: Menlo, Monaco, &amp;quot;Courier New&amp;quot;, monospace; font-size: 12px; line-height: 18px;&quot;&gt;&lt;div&gt;&lt;span style=&quot;color: rgb(197, 134, 192);&quot;&gt;break&lt;/span&gt;&lt;/div&gt;&lt;/div&gt;" style="shape=parallelogram;perimeter=parallelogramPerimeter;whiteSpace=wrap;html=1;fixedSize=1;" vertex="1" parent="m7VniRieLDafaRHdgjhX-22">
          <mxGeometry x="103.25" y="250" width="120" height="60" as="geometry" />
        </mxCell>
      </root>
    </mxGraphModel>
  </diagram>
</mxfile>
